<mxfile host="Electron" modified="2023-07-09T18:16:05.297Z" agent="Mozilla/5.0 (X11; Linux x86_64) AppleWebKit/537.36 (KHTML, like Gecko) draw.io/21.6.1 Chrome/112.0.5615.204 Electron/24.6.1 Safari/537.36" etag="oqqPTYLeRP-7G5n2THGK" version="21.6.1" type="device">
  <diagram name="第 1 页" id="ZzL4tyrZzvg-KW4yBGDX">
    <mxGraphModel dx="1114" dy="786" grid="1" gridSize="10" guides="1" tooltips="1" connect="1" arrows="1" fold="1" page="1" pageScale="1" pageWidth="827" pageHeight="1169" math="0" shadow="0">
      <root>
        <mxCell id="0" />
        <mxCell id="1" parent="0" />
        <mxCell id="M59Z0a83lZLuJSp_R_tC-1" value="" style="rounded=0;whiteSpace=wrap;html=1;" vertex="1" parent="1">
          <mxGeometry x="200" y="120" width="40" height="40" as="geometry" />
        </mxCell>
        <mxCell id="M59Z0a83lZLuJSp_R_tC-2" value="" style="rounded=0;whiteSpace=wrap;html=1;fillColor=#007FFF;" vertex="1" parent="1">
          <mxGeometry x="200" y="120" width="40" height="40" as="geometry" />
        </mxCell>
        <mxCell id="M59Z0a83lZLuJSp_R_tC-3" value="" style="rounded=0;whiteSpace=wrap;html=1;fillColor=#007FFF;" vertex="1" parent="1">
          <mxGeometry x="200" y="160" width="40" height="40" as="geometry" />
        </mxCell>
        <mxCell id="M59Z0a83lZLuJSp_R_tC-20" value="" style="edgeStyle=orthogonalEdgeStyle;rounded=0;orthogonalLoop=1;jettySize=auto;html=1;" edge="1" parent="1" source="M59Z0a83lZLuJSp_R_tC-4" target="M59Z0a83lZLuJSp_R_tC-19">
          <mxGeometry relative="1" as="geometry" />
        </mxCell>
        <mxCell id="M59Z0a83lZLuJSp_R_tC-4" value="h1" style="rounded=0;whiteSpace=wrap;html=1;fillColor=#00CC00;" vertex="1" parent="1">
          <mxGeometry x="200" y="200" width="40" height="40" as="geometry" />
        </mxCell>
        <mxCell id="M59Z0a83lZLuJSp_R_tC-5" value="" style="rounded=0;whiteSpace=wrap;html=1;fillColor=#007FFF;" vertex="1" parent="1">
          <mxGeometry x="200" y="240" width="40" height="40" as="geometry" />
        </mxCell>
        <mxCell id="M59Z0a83lZLuJSp_R_tC-23" style="edgeStyle=orthogonalEdgeStyle;rounded=0;orthogonalLoop=1;jettySize=auto;html=1;entryX=0;entryY=0.5;entryDx=0;entryDy=0;" edge="1" parent="1" source="M59Z0a83lZLuJSp_R_tC-6" target="M59Z0a83lZLuJSp_R_tC-22">
          <mxGeometry relative="1" as="geometry" />
        </mxCell>
        <mxCell id="M59Z0a83lZLuJSp_R_tC-6" value="h2" style="rounded=0;whiteSpace=wrap;html=1;fillColor=#FF8000;" vertex="1" parent="1">
          <mxGeometry x="200" y="280" width="40" height="40" as="geometry" />
        </mxCell>
        <mxCell id="M59Z0a83lZLuJSp_R_tC-7" value="" style="rounded=0;whiteSpace=wrap;html=1;fillColor=#007FFF;" vertex="1" parent="1">
          <mxGeometry x="200" y="320" width="40" height="40" as="geometry" />
        </mxCell>
        <mxCell id="M59Z0a83lZLuJSp_R_tC-8" value="" style="rounded=0;whiteSpace=wrap;html=1;fillColor=#007FFF;" vertex="1" parent="1">
          <mxGeometry x="200" y="360" width="40" height="40" as="geometry" />
        </mxCell>
        <mxCell id="M59Z0a83lZLuJSp_R_tC-29" style="edgeStyle=orthogonalEdgeStyle;rounded=0;orthogonalLoop=1;jettySize=auto;html=1;exitX=1;exitY=0.5;exitDx=0;exitDy=0;entryX=0;entryY=0.5;entryDx=0;entryDy=0;" edge="1" parent="1" source="M59Z0a83lZLuJSp_R_tC-9" target="M59Z0a83lZLuJSp_R_tC-28">
          <mxGeometry relative="1" as="geometry" />
        </mxCell>
        <mxCell id="M59Z0a83lZLuJSp_R_tC-9" value="h3" style="rounded=0;whiteSpace=wrap;html=1;fillColor=#FF66FF;" vertex="1" parent="1">
          <mxGeometry x="200" y="400" width="40" height="40" as="geometry" />
        </mxCell>
        <mxCell id="M59Z0a83lZLuJSp_R_tC-13" value="" style="edgeStyle=orthogonalEdgeStyle;rounded=0;orthogonalLoop=1;jettySize=auto;html=1;" edge="1" parent="1" source="M59Z0a83lZLuJSp_R_tC-10" target="M59Z0a83lZLuJSp_R_tC-12">
          <mxGeometry relative="1" as="geometry" />
        </mxCell>
        <mxCell id="M59Z0a83lZLuJSp_R_tC-10" value="K1, V1" style="rounded=0;whiteSpace=wrap;html=1;fillColor=#00CC00;" vertex="1" parent="1">
          <mxGeometry x="460" y="200" width="80" height="40" as="geometry" />
        </mxCell>
        <mxCell id="M59Z0a83lZLuJSp_R_tC-15" value="" style="edgeStyle=orthogonalEdgeStyle;rounded=0;orthogonalLoop=1;jettySize=auto;html=1;" edge="1" parent="1" source="M59Z0a83lZLuJSp_R_tC-12" target="M59Z0a83lZLuJSp_R_tC-14">
          <mxGeometry relative="1" as="geometry" />
        </mxCell>
        <mxCell id="M59Z0a83lZLuJSp_R_tC-12" value="K2, V2" style="rounded=0;whiteSpace=wrap;html=1;fillColor=#00CC00;" vertex="1" parent="1">
          <mxGeometry x="620" y="200" width="80" height="40" as="geometry" />
        </mxCell>
        <mxCell id="M59Z0a83lZLuJSp_R_tC-14" value="NULL" style="rounded=0;whiteSpace=wrap;html=1;fillColor=none;dashed=1;" vertex="1" parent="1">
          <mxGeometry x="780" y="200" width="80" height="40" as="geometry" />
        </mxCell>
        <mxCell id="M59Z0a83lZLuJSp_R_tC-21" style="edgeStyle=orthogonalEdgeStyle;rounded=0;orthogonalLoop=1;jettySize=auto;html=1;entryX=0;entryY=0.5;entryDx=0;entryDy=0;" edge="1" parent="1" source="M59Z0a83lZLuJSp_R_tC-19" target="M59Z0a83lZLuJSp_R_tC-10">
          <mxGeometry relative="1" as="geometry" />
        </mxCell>
        <mxCell id="M59Z0a83lZLuJSp_R_tC-19" value="HEAD" style="whiteSpace=wrap;html=1;fillColor=none;rounded=0;dashed=1;" vertex="1" parent="1">
          <mxGeometry x="320" y="200" width="80" height="40" as="geometry" />
        </mxCell>
        <mxCell id="M59Z0a83lZLuJSp_R_tC-25" style="edgeStyle=orthogonalEdgeStyle;rounded=0;orthogonalLoop=1;jettySize=auto;html=1;exitX=1;exitY=0.5;exitDx=0;exitDy=0;entryX=0;entryY=0.5;entryDx=0;entryDy=0;" edge="1" parent="1" source="M59Z0a83lZLuJSp_R_tC-22" target="M59Z0a83lZLuJSp_R_tC-24">
          <mxGeometry relative="1" as="geometry" />
        </mxCell>
        <mxCell id="M59Z0a83lZLuJSp_R_tC-22" value="HEAD" style="whiteSpace=wrap;html=1;fillColor=none;rounded=0;dashed=1;" vertex="1" parent="1">
          <mxGeometry x="320" y="280" width="80" height="40" as="geometry" />
        </mxCell>
        <mxCell id="M59Z0a83lZLuJSp_R_tC-27" value="" style="edgeStyle=orthogonalEdgeStyle;rounded=0;orthogonalLoop=1;jettySize=auto;html=1;" edge="1" parent="1" source="M59Z0a83lZLuJSp_R_tC-24" target="M59Z0a83lZLuJSp_R_tC-26">
          <mxGeometry relative="1" as="geometry" />
        </mxCell>
        <mxCell id="M59Z0a83lZLuJSp_R_tC-24" value="K3, V3" style="rounded=0;whiteSpace=wrap;html=1;fillColor=#FF8000;" vertex="1" parent="1">
          <mxGeometry x="460" y="280" width="80" height="40" as="geometry" />
        </mxCell>
        <mxCell id="M59Z0a83lZLuJSp_R_tC-26" value="NULL" style="rounded=0;whiteSpace=wrap;html=1;fillColor=none;dashed=1;" vertex="1" parent="1">
          <mxGeometry x="620" y="280" width="80" height="40" as="geometry" />
        </mxCell>
        <mxCell id="M59Z0a83lZLuJSp_R_tC-31" style="edgeStyle=orthogonalEdgeStyle;rounded=0;orthogonalLoop=1;jettySize=auto;html=1;entryX=0;entryY=0.5;entryDx=0;entryDy=0;" edge="1" parent="1" source="M59Z0a83lZLuJSp_R_tC-28" target="M59Z0a83lZLuJSp_R_tC-30">
          <mxGeometry relative="1" as="geometry" />
        </mxCell>
        <mxCell id="M59Z0a83lZLuJSp_R_tC-28" value="HEAD" style="whiteSpace=wrap;html=1;fillColor=none;rounded=0;dashed=1;" vertex="1" parent="1">
          <mxGeometry x="320" y="400" width="80" height="40" as="geometry" />
        </mxCell>
        <mxCell id="M59Z0a83lZLuJSp_R_tC-33" value="" style="edgeStyle=orthogonalEdgeStyle;rounded=0;orthogonalLoop=1;jettySize=auto;html=1;" edge="1" parent="1" source="M59Z0a83lZLuJSp_R_tC-30" target="M59Z0a83lZLuJSp_R_tC-32">
          <mxGeometry relative="1" as="geometry" />
        </mxCell>
        <mxCell id="M59Z0a83lZLuJSp_R_tC-30" value="K4, V4" style="rounded=0;whiteSpace=wrap;html=1;fillColor=#FF66FF;" vertex="1" parent="1">
          <mxGeometry x="460" y="400" width="80" height="40" as="geometry" />
        </mxCell>
        <mxCell id="M59Z0a83lZLuJSp_R_tC-35" value="" style="edgeStyle=orthogonalEdgeStyle;rounded=0;orthogonalLoop=1;jettySize=auto;html=1;" edge="1" parent="1" source="M59Z0a83lZLuJSp_R_tC-32" target="M59Z0a83lZLuJSp_R_tC-34">
          <mxGeometry relative="1" as="geometry" />
        </mxCell>
        <mxCell id="M59Z0a83lZLuJSp_R_tC-32" value="K5, V5" style="rounded=0;whiteSpace=wrap;html=1;fillColor=#FF66FF;" vertex="1" parent="1">
          <mxGeometry x="620" y="400" width="80" height="40" as="geometry" />
        </mxCell>
        <mxCell id="M59Z0a83lZLuJSp_R_tC-37" value="" style="edgeStyle=orthogonalEdgeStyle;rounded=0;orthogonalLoop=1;jettySize=auto;html=1;" edge="1" parent="1" source="M59Z0a83lZLuJSp_R_tC-34" target="M59Z0a83lZLuJSp_R_tC-36">
          <mxGeometry relative="1" as="geometry" />
        </mxCell>
        <mxCell id="M59Z0a83lZLuJSp_R_tC-34" value="K6, V6" style="rounded=0;whiteSpace=wrap;html=1;fillColor=#FF66FF;" vertex="1" parent="1">
          <mxGeometry x="780" y="400" width="80" height="40" as="geometry" />
        </mxCell>
        <mxCell id="M59Z0a83lZLuJSp_R_tC-36" value="NULL" style="rounded=0;whiteSpace=wrap;html=1;fillColor=none;dashed=1;" vertex="1" parent="1">
          <mxGeometry x="940" y="400" width="80" height="40" as="geometry" />
        </mxCell>
      </root>
    </mxGraphModel>
  </diagram>
</mxfile>
